<?xml version="1.0" standalone="no"?>
<!DOCTYPE svg PUBLIC "-//W3C//DTD SVG 20010904//EN"
 "http://www.w3.org/TR/2001/REC-SVG-20010904/DTD/svg10.dtd">
<svg version="1.0" xmlns="http://www.w3.org/2000/svg"
 width="75.000000pt" height="75.000000pt" viewBox="0 0 75.000000 75.000000"
 preserveAspectRatio="xMidYMid meet">

<g transform="translate(0.000000,75.000000) scale(0.100000,-0.100000)"
fill="#fff" stroke="none">
<path d="M350 671 c-5 -11 -10 -83 -10 -162 l0 -141 -41 36 c-42 39 -55 41
-73 13 -9 -14 2 -30 64 -92 41 -41 79 -75 85 -75 6 0 44 34 85 75 62 62 73 78
64 92 -18 28 -31 26 -73 -13 l-41 -36 0 141 c0 142 -8 181 -35 181 -8 0 -19
-9 -25 -19z"/>
<path d="M64 285 c-3 -14 -4 -57 -2 -95 3 -60 8 -74 31 -98 l27 -27 255 0 255
0 27 27 c23 24 28 38 31 98 5 88 -2 120 -28 120 -29 0 -40 -30 -40 -108 0 -64
-2 -70 -22 -76 -30 -8 -416 -8 -445 0 -21 6 -23 12 -23 76 0 38 -5 78 -10 89
-15 28 -48 24 -56 -6z"/>
</g>
</svg>
