<?xml version="1.0" standalone="no"?>
<!DOCTYPE svg PUBLIC "-//W3C//DTD SVG 20010904//EN"
 "http://www.w3.org/TR/2001/REC-SVG-20010904/DTD/svg10.dtd">
<svg version="1.0" xmlns="http://www.w3.org/2000/svg"
 width="100.000000pt" height="100.000000pt" viewBox="0 0 100.000000 100.000000"
 preserveAspectRatio="xMidYMid meet">

<g transform="translate(0.000000,100.000000) scale(0.100000,-0.100000)"
fill="#fff" stroke="none">
<path d="M311 886 c-28 -16 -50 -52 -51 -83 l0 -23 208 0 c177 0 212 -3 242
-18 57 -28 70 -67 70 -213 0 -173 5 -169 -201 -169 -150 0 -156 1 -177 23 -19
20 -22 35 -22 100 l0 77 -48 0 c-26 0 -53 -5 -60 -12 -18 -18 -16 -221 2 -257
25 -47 48 -51 307 -51 261 0 284 4 307 55 17 36 17 494 0 530 -23 51 -46 55
-310 55 -182 -1 -249 -4 -267 -14z"/>
<path d="M151 726 c-47 -26 -50 -45 -51 -304 0 -264 4 -287 55 -310 40 -19
497 -17 534 2 28 15 51 53 51 86 0 19 -8 20 -207 20 -178 0 -213 3 -243 18
-57 28 -70 67 -70 213 0 173 -5 169 201 169 150 0 156 -1 177 -23 19 -20 22
-35 22 -100 l0 -77 48 0 c26 0 53 5 60 12 16 16 16 218 0 253 -23 51 -46 55
-310 55 -182 -1 -249 -4 -267 -14z"/>
</g>
</svg>
